<svg xmlns="http://www.w3.org/2000/svg" xmlns:xlink="http://www.w3.org/1999/xlink" width="500" zoomAndPan="magnify" viewBox="0 0 375 374.999991" height="500" preserveAspectRatio="xMidYMid meet" version="1.0"><rect x="-37.5" width="450" fill="#ffffff" y="-37.499999" height="449.999989" fill-opacity="1"/><rect x="-37.5" width="450" fill="#ffffff" y="-37.499999" height="449.999989" fill-opacity="1"/><path fill="#008080" d="M 100.574219 187.554688 C 100.574219 188.125 100.546875 188.691406 100.492188 189.253906 C 100.4375 189.820312 100.351562 190.382812 100.242188 190.9375 C 100.132812 191.496094 99.992188 192.046875 99.828125 192.589844 C 99.664062 193.132812 99.472656 193.667969 99.253906 194.191406 C 99.039062 194.714844 98.796875 195.230469 98.527344 195.730469 C 98.261719 196.230469 97.96875 196.71875 97.65625 197.191406 C 97.339844 197.660156 97.003906 198.117188 96.640625 198.554688 C 96.28125 198.996094 95.902344 199.414062 95.5 199.816406 C 95.097656 200.21875 94.679688 200.601562 94.242188 200.960938 C 93.800781 201.320312 93.347656 201.65625 92.875 201.972656 C 92.402344 202.289062 91.917969 202.582031 91.417969 202.847656 C 90.917969 203.117188 90.402344 203.359375 89.878906 203.574219 C 89.355469 203.792969 88.820312 203.984375 88.277344 204.148438 C 87.734375 204.3125 87.1875 204.453125 86.628906 204.5625 C 86.074219 204.671875 85.511719 204.757812 84.949219 204.8125 C 84.382812 204.867188 83.816406 204.894531 83.25 204.894531 C 82.683594 204.894531 82.117188 204.867188 81.550781 204.8125 C 80.988281 204.757812 80.425781 204.671875 79.871094 204.5625 C 79.3125 204.453125 78.765625 204.3125 78.222656 204.148438 C 77.679688 203.984375 77.144531 203.792969 76.621094 203.574219 C 76.097656 203.359375 75.582031 203.117188 75.082031 202.847656 C 74.582031 202.582031 74.097656 202.289062 73.625 201.972656 C 73.152344 201.65625 72.699219 201.320312 72.257812 200.960938 C 71.820312 200.601562 71.402344 200.21875 71 199.816406 C 70.597656 199.414062 70.21875 198.996094 69.859375 198.554688 C 69.496094 198.117188 69.160156 197.660156 68.84375 197.191406 C 68.53125 196.71875 68.238281 196.230469 67.972656 195.730469 C 67.703125 195.230469 67.460938 194.714844 67.242188 194.191406 C 67.027344 193.667969 66.835938 193.132812 66.671875 192.589844 C 66.507812 192.046875 66.367188 191.496094 66.257812 190.9375 C 66.148438 190.382812 66.0625 189.820312 66.007812 189.253906 C 65.953125 188.691406 65.925781 188.125 65.925781 187.554688 C 65.925781 186.988281 65.953125 186.421875 66.007812 185.855469 C 66.0625 185.292969 66.148438 184.730469 66.257812 184.171875 C 66.367188 183.617188 66.507812 183.066406 66.671875 182.523438 C 66.835938 181.980469 67.027344 181.445312 67.242188 180.921875 C 67.460938 180.394531 67.703125 179.882812 67.972656 179.382812 C 68.238281 178.882812 68.53125 178.394531 68.84375 177.921875 C 69.160156 177.449219 69.496094 176.996094 69.859375 176.554688 C 70.21875 176.117188 70.597656 175.695312 71 175.292969 C 71.402344 174.894531 71.820312 174.511719 72.257812 174.152344 C 72.699219 173.792969 73.152344 173.453125 73.625 173.136719 C 74.097656 172.824219 74.582031 172.53125 75.082031 172.261719 C 75.582031 171.996094 76.097656 171.753906 76.621094 171.535156 C 77.144531 171.320312 77.679688 171.128906 78.222656 170.960938 C 78.765625 170.796875 79.3125 170.660156 79.871094 170.550781 C 80.425781 170.4375 80.988281 170.355469 81.550781 170.300781 C 82.117188 170.242188 82.683594 170.214844 83.25 170.214844 C 83.816406 170.214844 84.382812 170.242188 84.949219 170.300781 C 85.511719 170.355469 86.074219 170.4375 86.628906 170.550781 C 87.1875 170.660156 87.734375 170.796875 88.277344 170.960938 C 88.820312 171.128906 89.355469 171.320312 89.878906 171.535156 C 90.402344 171.753906 90.917969 171.996094 91.417969 172.261719 C 91.917969 172.53125 92.402344 172.824219 92.875 173.136719 C 93.347656 173.453125 93.800781 173.792969 94.242188 174.152344 C 94.679688 174.511719 95.097656 174.894531 95.5 175.292969 C 95.902344 175.695312 96.28125 176.117188 96.640625 176.554688 C 97.003906 176.996094 97.339844 177.449219 97.65625 177.921875 C 97.96875 178.394531 98.261719 178.882812 98.527344 179.382812 C 98.796875 179.882812 99.039062 180.394531 99.253906 180.921875 C 99.472656 181.445312 99.664062 181.980469 99.828125 182.523438 C 99.992188 183.066406 100.132812 183.617188 100.242188 184.171875 C 100.351562 184.730469 100.4375 185.292969 100.492188 185.855469 C 100.546875 186.421875 100.574219 186.988281 100.574219 187.554688 Z M 100.574219 187.554688 " fill-opacity="1" fill-rule="nonzero"/><path fill="#008080" d="M 143.886719 144.207031 C 143.886719 144.773438 143.859375 145.339844 143.804688 145.90625 C 143.746094 146.472656 143.664062 147.03125 143.554688 147.589844 C 143.441406 148.144531 143.304688 148.695312 143.140625 149.238281 C 142.976562 149.78125 142.785156 150.316406 142.566406 150.839844 C 142.351562 151.367188 142.109375 151.878906 141.839844 152.378906 C 141.574219 152.878906 141.28125 153.367188 140.964844 153.839844 C 140.652344 154.3125 140.3125 154.765625 139.953125 155.207031 C 139.59375 155.644531 139.214844 156.066406 138.8125 156.46875 C 138.410156 156.867188 137.992188 157.25 137.550781 157.609375 C 137.113281 157.96875 136.660156 158.308594 136.1875 158.625 C 135.714844 158.9375 135.230469 159.230469 134.730469 159.5 C 134.226562 159.765625 133.714844 160.007812 133.191406 160.226562 C 132.667969 160.441406 132.132812 160.632812 131.589844 160.800781 C 131.046875 160.964844 130.5 161.101562 129.941406 161.210938 C 129.386719 161.324219 128.824219 161.40625 128.261719 161.460938 C 127.695312 161.519531 127.128906 161.546875 126.5625 161.546875 C 125.996094 161.546875 125.429688 161.519531 124.863281 161.460938 C 124.300781 161.40625 123.738281 161.324219 123.183594 161.210938 C 122.625 161.101562 122.074219 160.964844 121.53125 160.800781 C 120.988281 160.632812 120.457031 160.441406 119.933594 160.226562 C 119.40625 160.007812 118.894531 159.765625 118.394531 159.5 C 117.894531 159.230469 117.410156 158.9375 116.9375 158.625 C 116.464844 158.308594 116.007812 157.96875 115.570312 157.609375 C 115.132812 157.25 114.710938 156.867188 114.3125 156.46875 C 113.910156 156.066406 113.53125 155.644531 113.167969 155.207031 C 112.808594 154.765625 112.472656 154.3125 112.15625 153.839844 C 111.839844 153.367188 111.550781 152.878906 111.28125 152.378906 C 111.015625 151.878906 110.773438 151.367188 110.554688 150.839844 C 110.339844 150.316406 110.148438 149.78125 109.984375 149.238281 C 109.816406 148.695312 109.679688 148.144531 109.570312 147.589844 C 109.460938 147.03125 109.375 146.472656 109.320312 145.90625 C 109.265625 145.339844 109.238281 144.773438 109.238281 144.207031 C 109.238281 143.636719 109.265625 143.070312 109.320312 142.507812 C 109.375 141.941406 109.460938 141.378906 109.570312 140.824219 C 109.679688 140.265625 109.816406 139.714844 109.984375 139.171875 C 110.148438 138.628906 110.339844 138.09375 110.554688 137.570312 C 110.773438 137.046875 111.015625 136.53125 111.28125 136.03125 C 111.550781 135.53125 111.839844 135.042969 112.15625 134.574219 C 112.472656 134.101562 112.808594 133.644531 113.167969 133.207031 C 113.53125 132.765625 113.910156 132.347656 114.3125 131.945312 C 114.710938 131.542969 115.132812 131.164062 115.570312 130.800781 C 116.007812 130.441406 116.464844 130.105469 116.9375 129.789062 C 117.410156 129.472656 117.894531 129.179688 118.394531 128.914062 C 118.894531 128.644531 119.40625 128.402344 119.933594 128.1875 C 120.457031 127.96875 120.988281 127.777344 121.53125 127.613281 C 122.074219 127.449219 122.625 127.308594 123.183594 127.199219 C 123.738281 127.089844 124.300781 127.003906 124.863281 126.949219 C 125.429688 126.894531 125.996094 126.867188 126.5625 126.867188 C 127.128906 126.867188 127.695312 126.894531 128.261719 126.949219 C 128.824219 127.003906 129.386719 127.089844 129.941406 127.199219 C 130.5 127.308594 131.046875 127.449219 131.589844 127.613281 C 132.132812 127.777344 132.667969 127.96875 133.191406 128.1875 C 133.714844 128.402344 134.226562 128.644531 134.730469 128.914062 C 135.230469 129.179688 135.714844 129.472656 136.1875 129.789062 C 136.660156 130.105469 137.113281 130.441406 137.550781 130.800781 C 137.992188 131.164062 138.410156 131.542969 138.8125 131.945312 C 139.214844 132.347656 139.59375 132.765625 139.953125 133.207031 C 140.3125 133.644531 140.652344 134.101562 140.964844 134.574219 C 141.28125 135.042969 141.574219 135.53125 141.839844 136.03125 C 142.109375 136.53125 142.351562 137.046875 142.566406 137.570312 C 142.785156 138.09375 142.976562 138.628906 143.140625 139.171875 C 143.304688 139.714844 143.441406 140.265625 143.554688 140.824219 C 143.664062 141.378906 143.746094 141.941406 143.804688 142.507812 C 143.859375 143.070312 143.886719 143.636719 143.886719 144.207031 Z M 143.886719 144.207031 " fill-opacity="1" fill-rule="nonzero"/><path fill="#008080" d="M 187.199219 187.554688 C 187.199219 188.125 187.171875 188.691406 187.113281 189.253906 C 187.058594 189.820312 186.976562 190.382812 186.867188 190.9375 C 186.753906 191.496094 186.617188 192.046875 186.453125 192.589844 C 186.289062 193.132812 186.097656 193.667969 185.878906 194.191406 C 185.664062 194.714844 185.421875 195.230469 185.152344 195.730469 C 184.886719 196.230469 184.59375 196.71875 184.277344 197.191406 C 183.964844 197.660156 183.625 198.117188 183.265625 198.554688 C 182.90625 198.996094 182.527344 199.414062 182.125 199.816406 C 181.722656 200.21875 181.304688 200.601562 180.863281 200.960938 C 180.425781 201.320312 179.96875 201.65625 179.5 201.972656 C 179.027344 202.289062 178.539062 202.582031 178.039062 202.847656 C 177.539062 203.117188 177.027344 203.359375 176.503906 203.574219 C 175.980469 203.792969 175.445312 203.984375 174.902344 204.148438 C 174.359375 204.3125 173.808594 204.453125 173.253906 204.5625 C 172.695312 204.671875 172.136719 204.757812 171.570312 204.8125 C 171.007812 204.867188 170.441406 204.894531 169.875 204.894531 C 169.304688 204.894531 168.742188 204.867188 168.175781 204.8125 C 167.609375 204.757812 167.050781 204.671875 166.492188 204.5625 C 165.9375 204.453125 165.386719 204.3125 164.84375 204.148438 C 164.300781 203.984375 163.769531 203.792969 163.242188 203.574219 C 162.71875 203.359375 162.207031 203.117188 161.707031 202.847656 C 161.207031 202.582031 160.71875 202.289062 160.25 201.972656 C 159.777344 201.65625 159.320312 201.320312 158.882812 200.960938 C 158.445312 200.601562 158.023438 200.21875 157.625 199.816406 C 157.222656 199.414062 156.839844 198.996094 156.480469 198.554688 C 156.121094 198.117188 155.785156 197.660156 155.46875 197.191406 C 155.152344 196.71875 154.863281 196.230469 154.59375 195.730469 C 154.328125 195.230469 154.085938 194.714844 153.867188 194.191406 C 153.652344 193.667969 153.460938 193.132812 153.296875 192.589844 C 153.128906 192.046875 152.992188 191.496094 152.882812 190.9375 C 152.769531 190.382812 152.6875 189.820312 152.632812 189.253906 C 152.578125 188.691406 152.550781 188.125 152.550781 187.554688 C 152.550781 186.988281 152.578125 186.421875 152.632812 185.855469 C 152.6875 185.292969 152.769531 184.730469 152.882812 184.171875 C 152.992188 183.617188 153.128906 183.066406 153.296875 182.523438 C 153.460938 181.980469 153.652344 181.445312 153.867188 180.921875 C 154.085938 180.394531 154.328125 179.882812 154.59375 179.382812 C 154.863281 178.882812 155.152344 178.394531 155.46875 177.921875 C 155.785156 177.449219 156.121094 176.996094 156.480469 176.554688 C 156.839844 176.117188 157.222656 175.695312 157.625 175.292969 C 158.023438 174.894531 158.445312 174.511719 158.882812 174.152344 C 159.320312 173.792969 159.777344 173.453125 160.25 173.136719 C 160.71875 172.824219 161.207031 172.53125 161.707031 172.261719 C 162.207031 171.996094 162.71875 171.753906 163.242188 171.535156 C 163.769531 171.320312 164.300781 171.128906 164.84375 170.960938 C 165.386719 170.796875 165.9375 170.660156 166.492188 170.550781 C 167.050781 170.4375 167.609375 170.355469 168.175781 170.300781 C 168.742188 170.242188 169.304688 170.214844 169.875 170.214844 C 170.441406 170.214844 171.007812 170.242188 171.570312 170.300781 C 172.136719 170.355469 172.695312 170.4375 173.253906 170.550781 C 173.808594 170.660156 174.359375 170.796875 174.902344 170.960938 C 175.445312 171.128906 175.980469 171.320312 176.503906 171.535156 C 177.027344 171.753906 177.539062 171.996094 178.039062 172.261719 C 178.539062 172.53125 179.027344 172.824219 179.5 173.136719 C 179.96875 173.453125 180.425781 173.792969 180.863281 174.152344 C 181.304688 174.511719 181.722656 174.894531 182.125 175.292969 C 182.527344 175.695312 182.90625 176.117188 183.265625 176.554688 C 183.625 176.996094 183.964844 177.449219 184.277344 177.921875 C 184.59375 178.394531 184.886719 178.882812 185.152344 179.382812 C 185.421875 179.882812 185.664062 180.394531 185.878906 180.921875 C 186.097656 181.445312 186.289062 181.980469 186.453125 182.523438 C 186.617188 183.066406 186.753906 183.617188 186.867188 184.171875 C 186.976562 184.730469 187.058594 185.292969 187.113281 185.855469 C 187.171875 186.421875 187.199219 186.988281 187.199219 187.554688 Z M 187.199219 187.554688 " fill-opacity="1" fill-rule="nonzero"/><path fill="#008080" d="M 143.886719 230.90625 C 143.886719 231.472656 143.859375 232.039062 143.804688 232.605469 C 143.746094 233.171875 143.664062 233.730469 143.554688 234.289062 C 143.441406 234.847656 143.304688 235.394531 143.140625 235.941406 C 142.976562 236.484375 142.785156 237.015625 142.566406 237.542969 C 142.351562 238.066406 142.109375 238.578125 141.839844 239.078125 C 141.574219 239.582031 141.28125 240.066406 140.964844 240.539062 C 140.652344 241.011719 140.3125 241.46875 139.953125 241.90625 C 139.59375 242.34375 139.214844 242.765625 138.8125 243.167969 C 138.410156 243.570312 137.992188 243.949219 137.550781 244.308594 C 137.113281 244.671875 136.660156 245.007812 136.1875 245.324219 C 135.714844 245.640625 135.230469 245.929688 134.730469 246.199219 C 134.226562 246.464844 133.714844 246.707031 133.191406 246.925781 C 132.667969 247.144531 132.132812 247.335938 131.589844 247.5 C 131.046875 247.664062 130.5 247.800781 129.941406 247.914062 C 129.386719 248.023438 128.824219 248.105469 128.261719 248.164062 C 127.695312 248.21875 127.128906 248.246094 126.5625 248.246094 C 125.996094 248.246094 125.429688 248.21875 124.863281 248.164062 C 124.300781 248.105469 123.738281 248.023438 123.183594 247.914062 C 122.625 247.800781 122.074219 247.664062 121.53125 247.5 C 120.988281 247.335938 120.457031 247.144531 119.933594 246.925781 C 119.40625 246.707031 118.894531 246.464844 118.394531 246.199219 C 117.894531 245.929688 117.410156 245.640625 116.9375 245.324219 C 116.464844 245.007812 116.007812 244.671875 115.570312 244.308594 C 115.132812 243.949219 114.710938 243.570312 114.3125 243.167969 C 113.910156 242.765625 113.53125 242.34375 113.167969 241.90625 C 112.808594 241.46875 112.472656 241.011719 112.15625 240.539062 C 111.839844 240.066406 111.550781 239.582031 111.28125 239.078125 C 111.015625 238.578125 110.773438 238.066406 110.554688 237.542969 C 110.339844 237.015625 110.148438 236.484375 109.984375 235.941406 C 109.816406 235.394531 109.679688 234.847656 109.570312 234.289062 C 109.460938 233.730469 109.375 233.171875 109.320312 232.605469 C 109.265625 232.039062 109.238281 231.472656 109.238281 230.90625 C 109.238281 230.339844 109.265625 229.769531 109.320312 229.207031 C 109.375 228.640625 109.460938 228.078125 109.570312 227.523438 C 109.679688 226.964844 109.816406 226.414062 109.984375 225.871094 C 110.148438 225.328125 110.339844 224.792969 110.554688 224.269531 C 110.773438 223.746094 111.015625 223.234375 111.28125 222.730469 C 111.550781 222.230469 111.839844 221.746094 112.15625 221.273438 C 112.472656 220.800781 112.808594 220.34375 113.167969 219.90625 C 113.53125 219.464844 113.910156 219.046875 114.3125 218.644531 C 114.710938 218.242188 115.132812 217.863281 115.570312 217.5 C 116.007812 217.140625 116.464844 216.804688 116.9375 216.488281 C 117.410156 216.171875 117.894531 215.882812 118.394531 215.613281 C 118.894531 215.34375 119.40625 215.101562 119.933594 214.886719 C 120.457031 214.667969 120.988281 214.476562 121.53125 214.3125 C 122.074219 214.148438 122.625 214.011719 123.183594 213.898438 C 123.738281 213.789062 124.300781 213.707031 124.863281 213.648438 C 125.429688 213.59375 125.996094 213.566406 126.5625 213.566406 C 127.128906 213.566406 127.695312 213.59375 128.261719 213.648438 C 128.824219 213.707031 129.386719 213.789062 129.941406 213.898438 C 130.5 214.011719 131.046875 214.148438 131.589844 214.3125 C 132.132812 214.476562 132.667969 214.667969 133.191406 214.886719 C 133.714844 215.101562 134.226562 215.34375 134.730469 215.613281 C 135.230469 215.882812 135.714844 216.171875 136.1875 216.488281 C 136.660156 216.804688 137.113281 217.140625 137.550781 217.5 C 137.992188 217.863281 138.410156 218.242188 138.8125 218.644531 C 139.214844 219.046875 139.59375 219.464844 139.953125 219.90625 C 140.3125 220.34375 140.652344 220.800781 140.964844 221.273438 C 141.28125 221.746094 141.574219 222.230469 141.839844 222.730469 C 142.109375 223.234375 142.351562 223.746094 142.566406 224.269531 C 142.785156 224.792969 142.976562 225.328125 143.140625 225.871094 C 143.304688 226.414062 143.441406 226.964844 143.554688 227.523438 C 143.664062 228.078125 143.746094 228.640625 143.804688 229.207031 C 143.859375 229.769531 143.886719 230.339844 143.886719 230.90625 Z M 143.886719 230.90625 " fill-opacity="1" fill-rule="nonzero"/><path fill="#008080" d="M 230.511719 187.554688 C 230.511719 188.125 230.484375 188.691406 230.425781 189.253906 C 230.371094 189.820312 230.289062 190.382812 230.175781 190.9375 C 230.066406 191.496094 229.929688 192.046875 229.765625 192.589844 C 229.601562 193.132812 229.410156 193.667969 229.191406 194.191406 C 228.972656 194.714844 228.730469 195.230469 228.464844 195.730469 C 228.199219 196.230469 227.90625 196.71875 227.589844 197.191406 C 227.277344 197.660156 226.9375 198.117188 226.578125 198.554688 C 226.21875 198.996094 225.835938 199.414062 225.4375 199.816406 C 225.035156 200.21875 224.613281 200.601562 224.175781 200.960938 C 223.738281 201.320312 223.28125 201.65625 222.8125 201.972656 C 222.339844 202.289062 221.851562 202.582031 221.351562 202.847656 C 220.851562 203.117188 220.339844 203.359375 219.816406 203.574219 C 219.292969 203.792969 218.757812 203.984375 218.214844 204.148438 C 217.671875 204.3125 217.121094 204.453125 216.566406 204.5625 C 216.007812 204.671875 215.449219 204.757812 214.882812 204.8125 C 214.320312 204.867188 213.753906 204.894531 213.1875 204.894531 C 212.617188 204.894531 212.050781 204.867188 211.488281 204.8125 C 210.921875 204.757812 210.363281 204.671875 209.804688 204.5625 C 209.25 204.453125 208.699219 204.3125 208.15625 204.148438 C 207.613281 203.984375 207.078125 203.792969 206.554688 203.574219 C 206.03125 203.359375 205.519531 203.117188 205.019531 202.847656 C 204.519531 202.582031 204.03125 202.289062 203.558594 201.972656 C 203.089844 201.65625 202.632812 201.320312 202.195312 200.960938 C 201.757812 200.601562 201.335938 200.21875 200.933594 199.816406 C 200.535156 199.414062 200.152344 198.996094 199.792969 198.554688 C 199.433594 198.117188 199.097656 197.660156 198.78125 197.191406 C 198.464844 196.71875 198.175781 196.230469 197.90625 195.730469 C 197.640625 195.230469 197.398438 194.714844 197.179688 194.191406 C 196.960938 193.667969 196.773438 193.132812 196.605469 192.589844 C 196.441406 192.046875 196.304688 191.496094 196.195312 190.9375 C 196.082031 190.382812 196 189.820312 195.945312 189.253906 C 195.890625 188.691406 195.859375 188.125 195.859375 187.554688 C 195.859375 186.988281 195.890625 186.421875 195.945312 185.855469 C 196 185.292969 196.082031 184.730469 196.195312 184.171875 C 196.304688 183.617188 196.441406 183.066406 196.605469 182.523438 C 196.773438 181.980469 196.960938 181.445312 197.179688 180.921875 C 197.398438 180.394531 197.640625 179.882812 197.90625 179.382812 C 198.175781 178.882812 198.464844 178.394531 198.78125 177.921875 C 199.097656 177.449219 199.433594 176.996094 199.792969 176.554688 C 200.152344 176.117188 200.535156 175.695312 200.933594 175.292969 C 201.335938 174.894531 201.757812 174.511719 202.195312 174.152344 C 202.632812 173.792969 203.089844 173.453125 203.5625 173.136719 C 204.03125 172.824219 204.519531 172.53125 205.019531 172.261719 C 205.519531 171.996094 206.03125 171.753906 206.554688 171.535156 C 207.078125 171.320312 207.613281 171.128906 208.15625 170.960938 C 208.699219 170.796875 209.25 170.660156 209.804688 170.550781 C 210.363281 170.4375 210.921875 170.355469 211.488281 170.300781 C 212.050781 170.242188 212.617188 170.214844 213.1875 170.214844 C 213.753906 170.214844 214.320312 170.242188 214.882812 170.300781 C 215.449219 170.355469 216.007812 170.4375 216.566406 170.550781 C 217.121094 170.660156 217.671875 170.796875 218.214844 170.960938 C 218.757812 171.128906 219.292969 171.320312 219.816406 171.535156 C 220.339844 171.753906 220.851562 171.996094 221.351562 172.261719 C 221.851562 172.53125 222.339844 172.824219 222.8125 173.136719 C 223.28125 173.453125 223.738281 173.792969 224.175781 174.152344 C 224.613281 174.511719 225.035156 174.894531 225.4375 175.292969 C 225.835938 175.695312 226.21875 176.117188 226.578125 176.554688 C 226.9375 176.996094 227.277344 177.449219 227.589844 177.921875 C 227.90625 178.394531 228.195312 178.882812 228.464844 179.382812 C 228.730469 179.882812 228.972656 180.394531 229.191406 180.921875 C 229.410156 181.445312 229.601562 181.980469 229.765625 182.523438 C 229.929688 183.066406 230.066406 183.617188 230.175781 184.171875 C 230.289062 184.730469 230.371094 185.292969 230.425781 185.855469 C 230.484375 186.421875 230.511719 186.988281 230.511719 187.554688 Z M 230.511719 187.554688 " fill-opacity="1" fill-rule="nonzero"/><path fill="#008080" d="M 273.824219 144.207031 C 273.824219 144.773438 273.792969 145.339844 273.738281 145.90625 C 273.683594 146.472656 273.601562 147.03125 273.488281 147.589844 C 273.378906 148.144531 273.242188 148.695312 273.078125 149.238281 C 272.910156 149.78125 272.722656 150.316406 272.503906 150.839844 C 272.285156 151.367188 272.042969 151.878906 271.777344 152.378906 C 271.507812 152.878906 271.21875 153.367188 270.902344 153.839844 C 270.585938 154.3125 270.25 154.765625 269.890625 155.207031 C 269.53125 155.644531 269.148438 156.066406 268.75 156.46875 C 268.347656 156.867188 267.925781 157.25 267.488281 157.609375 C 267.050781 157.96875 266.59375 158.308594 266.121094 158.625 C 265.652344 158.9375 265.164062 159.230469 264.664062 159.5 C 264.164062 159.765625 263.652344 160.007812 263.128906 160.226562 C 262.601562 160.441406 262.070312 160.632812 261.527344 160.800781 C 260.984375 160.964844 260.433594 161.101562 259.878906 161.210938 C 259.320312 161.324219 258.761719 161.40625 258.195312 161.460938 C 257.632812 161.519531 257.066406 161.546875 256.496094 161.546875 C 255.929688 161.546875 255.363281 161.519531 254.800781 161.460938 C 254.234375 161.40625 253.675781 161.324219 253.117188 161.210938 C 252.5625 161.101562 252.011719 160.964844 251.46875 160.800781 C 250.925781 160.632812 250.390625 160.441406 249.867188 160.226562 C 249.34375 160.007812 248.832031 159.765625 248.332031 159.5 C 247.832031 159.230469 247.34375 158.9375 246.871094 158.625 C 246.402344 158.308594 245.945312 157.96875 245.507812 157.609375 C 245.066406 157.25 244.648438 156.867188 244.246094 156.46875 C 243.847656 156.066406 243.464844 155.644531 243.105469 155.207031 C 242.746094 154.765625 242.40625 154.3125 242.09375 153.839844 C 241.777344 153.367188 241.484375 152.878906 241.21875 152.378906 C 240.949219 151.878906 240.707031 151.367188 240.492188 150.839844 C 240.273438 150.316406 240.082031 149.78125 239.917969 149.238281 C 239.753906 148.695312 239.617188 148.144531 239.503906 147.589844 C 239.394531 147.03125 239.3125 146.472656 239.257812 145.90625 C 239.199219 145.339844 239.171875 144.773438 239.171875 144.207031 C 239.171875 143.636719 239.199219 143.070312 239.257812 142.507812 C 239.3125 141.941406 239.394531 141.378906 239.503906 140.824219 C 239.617188 140.265625 239.753906 139.714844 239.917969 139.171875 C 240.082031 138.628906 240.273438 138.09375 240.492188 137.570312 C 240.707031 137.046875 240.949219 136.53125 241.21875 136.03125 C 241.484375 135.53125 241.777344 135.042969 242.09375 134.574219 C 242.40625 134.101562 242.746094 133.644531 243.105469 133.207031 C 243.464844 132.765625 243.847656 132.347656 244.246094 131.945312 C 244.648438 131.542969 245.066406 131.164062 245.507812 130.800781 C 245.945312 130.441406 246.402344 130.105469 246.871094 129.789062 C 247.34375 129.472656 247.832031 129.179688 248.332031 128.914062 C 248.832031 128.644531 249.34375 128.402344 249.867188 128.1875 C 250.390625 127.96875 250.925781 127.777344 251.46875 127.613281 C 252.011719 127.449219 252.5625 127.308594 253.117188 127.199219 C 253.675781 127.089844 254.234375 127.003906 254.800781 126.949219 C 255.363281 126.894531 255.929688 126.867188 256.496094 126.867188 C 257.066406 126.867188 257.632812 126.894531 258.195312 126.949219 C 258.761719 127.003906 259.320312 127.089844 259.878906 127.199219 C 260.433594 127.308594 260.984375 127.449219 261.527344 127.613281 C 262.070312 127.777344 262.601562 127.96875 263.128906 128.1875 C 263.652344 128.402344 264.164062 128.644531 264.664062 128.914062 C 265.164062 129.179688 265.652344 129.472656 266.121094 129.789062 C 266.59375 130.105469 267.050781 130.441406 267.488281 130.800781 C 267.925781 131.164062 268.347656 131.542969 268.75 131.945312 C 269.148438 132.347656 269.53125 132.765625 269.890625 133.207031 C 270.25 133.644531 270.585938 134.101562 270.902344 134.574219 C 271.21875 135.042969 271.507812 135.53125 271.777344 136.03125 C 272.042969 136.53125 272.285156 137.046875 272.503906 137.570312 C 272.722656 138.09375 272.910156 138.628906 273.078125 139.171875 C 273.242188 139.714844 273.378906 140.265625 273.488281 140.824219 C 273.601562 141.378906 273.683594 141.941406 273.738281 142.507812 C 273.792969 143.070312 273.824219 143.636719 273.824219 144.207031 Z M 273.824219 144.207031 " fill-opacity="1" fill-rule="nonzero"/><path fill="#008080" d="M 317.132812 187.554688 C 317.132812 188.125 317.105469 188.691406 317.050781 189.253906 C 316.996094 189.820312 316.914062 190.382812 316.800781 190.9375 C 316.691406 191.496094 316.554688 192.046875 316.386719 192.589844 C 316.222656 193.132812 316.03125 193.667969 315.816406 194.191406 C 315.597656 194.714844 315.355469 195.230469 315.089844 195.730469 C 314.820312 196.230469 314.53125 196.71875 314.214844 197.191406 C 313.898438 197.660156 313.5625 198.117188 313.203125 198.554688 C 312.84375 198.996094 312.460938 199.414062 312.058594 199.816406 C 311.660156 200.21875 311.238281 200.601562 310.800781 200.960938 C 310.363281 201.320312 309.90625 201.65625 309.433594 201.972656 C 308.960938 202.289062 308.476562 202.582031 307.976562 202.847656 C 307.476562 203.117188 306.964844 203.359375 306.4375 203.574219 C 305.914062 203.792969 305.382812 203.984375 304.839844 204.148438 C 304.296875 204.3125 303.746094 204.453125 303.1875 204.5625 C 302.632812 204.671875 302.074219 204.757812 301.507812 204.8125 C 300.941406 204.867188 300.378906 204.894531 299.808594 204.894531 C 299.242188 204.894531 298.675781 204.867188 298.113281 204.8125 C 297.546875 204.757812 296.984375 204.671875 296.429688 204.5625 C 295.875 204.453125 295.324219 204.3125 294.78125 204.148438 C 294.238281 203.984375 293.703125 203.792969 293.179688 203.574219 C 292.65625 203.359375 292.144531 203.117188 291.644531 202.847656 C 291.140625 202.582031 290.65625 202.289062 290.183594 201.972656 C 289.710938 201.65625 289.257812 201.320312 288.820312 200.960938 C 288.378906 200.601562 287.960938 200.21875 287.558594 199.816406 C 287.15625 199.414062 286.777344 198.996094 286.417969 198.554688 C 286.058594 198.117188 285.71875 197.660156 285.40625 197.191406 C 285.089844 196.71875 284.796875 196.230469 284.53125 195.730469 C 284.261719 195.230469 284.019531 194.714844 283.804688 194.191406 C 283.585938 193.667969 283.394531 193.132812 283.230469 192.589844 C 283.066406 192.046875 282.929688 191.496094 282.816406 190.9375 C 282.707031 190.382812 282.625 189.820312 282.566406 189.253906 C 282.511719 188.691406 282.484375 188.125 282.484375 187.554688 C 282.484375 186.988281 282.511719 186.421875 282.566406 185.855469 C 282.625 185.292969 282.707031 184.730469 282.816406 184.171875 C 282.929688 183.617188 283.066406 183.066406 283.230469 182.523438 C 283.394531 181.980469 283.585938 181.445312 283.804688 180.921875 C 284.019531 180.394531 284.261719 179.882812 284.53125 179.382812 C 284.796875 178.882812 285.089844 178.394531 285.40625 177.921875 C 285.71875 177.449219 286.058594 176.996094 286.417969 176.554688 C 286.777344 176.117188 287.15625 175.695312 287.558594 175.292969 C 287.960938 174.894531 288.378906 174.511719 288.820312 174.152344 C 289.257812 173.792969 289.710938 173.453125 290.183594 173.136719 C 290.65625 172.824219 291.140625 172.53125 291.644531 172.261719 C 292.144531 171.996094 292.65625 171.753906 293.179688 171.535156 C 293.703125 171.320312 294.238281 171.128906 294.78125 170.960938 C 295.324219 170.796875 295.875 170.660156 296.429688 170.550781 C 296.984375 170.4375 297.546875 170.355469 298.113281 170.300781 C 298.675781 170.242188 299.242188 170.214844 299.808594 170.214844 C 300.378906 170.214844 300.941406 170.242188 301.507812 170.300781 C 302.074219 170.355469 302.632812 170.4375 303.1875 170.550781 C 303.746094 170.660156 304.296875 170.796875 304.839844 170.960938 C 305.382812 171.128906 305.914062 171.320312 306.4375 171.535156 C 306.964844 171.753906 307.476562 171.996094 307.976562 172.261719 C 308.476562 172.53125 308.960938 172.824219 309.433594 173.136719 C 309.90625 173.453125 310.363281 173.792969 310.800781 174.152344 C 311.238281 174.511719 311.660156 174.894531 312.058594 175.292969 C 312.460938 175.695312 312.84375 176.117188 313.203125 176.554688 C 313.5625 176.996094 313.898438 177.449219 314.214844 177.921875 C 314.53125 178.394531 314.820312 178.882812 315.089844 179.382812 C 315.355469 179.882812 315.597656 180.394531 315.816406 180.921875 C 316.03125 181.445312 316.222656 181.980469 316.386719 182.523438 C 316.554688 183.066406 316.691406 183.617188 316.800781 184.171875 C 316.914062 184.730469 316.996094 185.292969 317.050781 185.855469 C 317.105469 186.421875 317.132812 186.988281 317.132812 187.554688 Z M 317.132812 187.554688 " fill-opacity="1" fill-rule="nonzero"/><path fill="#008080" d="M 273.824219 230.90625 C 273.824219 231.472656 273.792969 232.039062 273.738281 232.605469 C 273.683594 233.171875 273.601562 233.730469 273.488281 234.289062 C 273.378906 234.847656 273.242188 235.394531 273.078125 235.941406 C 272.910156 236.484375 272.722656 237.015625 272.503906 237.542969 C 272.285156 238.066406 272.042969 238.578125 271.777344 239.078125 C 271.507812 239.582031 271.21875 240.066406 270.902344 240.539062 C 270.585938 241.011719 270.25 241.46875 269.890625 241.90625 C 269.53125 242.34375 269.148438 242.765625 268.75 243.167969 C 268.347656 243.570312 267.925781 243.949219 267.488281 244.308594 C 267.050781 244.671875 266.59375 245.007812 266.121094 245.324219 C 265.652344 245.640625 265.164062 245.929688 264.664062 246.199219 C 264.164062 246.464844 263.652344 246.707031 263.128906 246.925781 C 262.601562 247.144531 262.070312 247.335938 261.527344 247.5 C 260.984375 247.664062 260.433594 247.800781 259.878906 247.914062 C 259.320312 248.023438 258.761719 248.105469 258.195312 248.164062 C 257.632812 248.21875 257.066406 248.246094 256.496094 248.246094 C 255.929688 248.246094 255.363281 248.21875 254.800781 248.164062 C 254.234375 248.105469 253.675781 248.023438 253.117188 247.914062 C 252.5625 247.800781 252.011719 247.664062 251.46875 247.5 C 250.925781 247.335938 250.390625 247.144531 249.867188 246.925781 C 249.34375 246.707031 248.832031 246.464844 248.332031 246.199219 C 247.832031 245.929688 247.34375 245.640625 246.871094 245.324219 C 246.402344 245.007812 245.945312 244.671875 245.507812 244.308594 C 245.066406 243.949219 244.648438 243.570312 244.246094 243.167969 C 243.847656 242.765625 243.464844 242.34375 243.105469 241.90625 C 242.746094 241.46875 242.40625 241.011719 242.09375 240.539062 C 241.777344 240.066406 241.484375 239.582031 241.21875 239.078125 C 240.949219 238.578125 240.707031 238.066406 240.492188 237.542969 C 240.273438 237.015625 240.082031 236.484375 239.917969 235.941406 C 239.753906 235.394531 239.617188 234.847656 239.503906 234.289062 C 239.394531 233.730469 239.3125 233.171875 239.257812 232.605469 C 239.199219 232.039062 239.171875 231.472656 239.171875 230.90625 C 239.171875 230.339844 239.199219 229.769531 239.257812 229.207031 C 239.3125 228.640625 239.394531 228.078125 239.503906 227.523438 C 239.617188 226.964844 239.753906 226.414062 239.917969 225.871094 C 240.082031 225.328125 240.273438 224.792969 240.492188 224.269531 C 240.707031 223.746094 240.949219 223.234375 241.21875 222.730469 C 241.484375 222.230469 241.777344 221.746094 242.09375 221.273438 C 242.40625 220.800781 242.746094 220.34375 243.105469 219.90625 C 243.464844 219.464844 243.847656 219.046875 244.246094 218.644531 C 244.648438 218.242188 245.066406 217.863281 245.507812 217.5 C 245.945312 217.140625 246.402344 216.804688 246.871094 216.488281 C 247.34375 216.171875 247.832031 215.882812 248.332031 215.613281 C 248.832031 215.34375 249.34375 215.101562 249.867188 214.886719 C 250.390625 214.667969 250.925781 214.476562 251.46875 214.3125 C 252.011719 214.148438 252.5625 214.011719 253.117188 213.898438 C 253.675781 213.789062 254.234375 213.707031 254.800781 213.648438 C 255.363281 213.59375 255.929688 213.566406 256.496094 213.566406 C 257.066406 213.566406 257.632812 213.59375 258.195312 213.648438 C 258.761719 213.707031 259.320312 213.789062 259.878906 213.898438 C 260.433594 214.011719 260.984375 214.148438 261.527344 214.3125 C 262.070312 214.476562 262.601562 214.667969 263.128906 214.886719 C 263.652344 215.101562 264.164062 215.34375 264.664062 215.613281 C 265.164062 215.882812 265.652344 216.171875 266.121094 216.488281 C 266.59375 216.804688 267.050781 217.140625 267.488281 217.5 C 267.925781 217.863281 268.347656 218.242188 268.75 218.644531 C 269.148438 219.046875 269.53125 219.464844 269.890625 219.90625 C 270.25 220.34375 270.585938 220.800781 270.902344 221.273438 C 271.21875 221.746094 271.507812 222.230469 271.777344 222.730469 C 272.042969 223.234375 272.285156 223.746094 272.503906 224.269531 C 272.722656 224.792969 272.910156 225.328125 273.078125 225.871094 C 273.242188 226.414062 273.378906 226.964844 273.488281 227.523438 C 273.601562 228.078125 273.683594 228.640625 273.738281 229.207031 C 273.792969 229.769531 273.824219 230.339844 273.824219 230.90625 Z M 273.824219 230.90625 " fill-opacity="1" fill-rule="nonzero"/></svg>