<svg xmlns="http://www.w3.org/2000/svg" xmlns:xlink="http://www.w3.org/1999/xlink" width="200" zoomAndPan="magnify" viewBox="0 0 150 74.999997" height="100" preserveAspectRatio="xMidYMid meet" version="1.0"><defs><g/></defs><path fill="#000000" d="M 64.628906 38.769531 C 64.628906 38.566406 64.667969 38.375 64.746094 38.191406 C 64.820312 38.007812 64.929688 37.84375 65.070312 37.703125 C 65.210938 37.5625 65.375 37.453125 65.558594 37.375 C 65.742188 37.300781 65.9375 37.261719 66.136719 37.261719 C 66.335938 37.261719 66.527344 37.300781 66.710938 37.375 C 66.894531 37.453125 67.058594 37.5625 67.199219 37.703125 C 67.339844 37.84375 67.449219 38.007812 67.527344 38.191406 C 67.601562 38.375 67.640625 38.566406 67.640625 38.769531 C 67.640625 38.96875 67.601562 39.160156 67.527344 39.34375 C 67.449219 39.527344 67.339844 39.691406 67.199219 39.832031 C 67.058594 39.972656 66.894531 40.082031 66.710938 40.160156 C 66.527344 40.234375 66.335938 40.273438 66.136719 40.273438 C 65.9375 40.273438 65.742188 40.234375 65.558594 40.160156 C 65.375 40.082031 65.210938 39.972656 65.070312 39.832031 C 64.929688 39.691406 64.820312 39.527344 64.746094 39.34375 C 64.667969 39.160156 64.628906 38.96875 64.628906 38.769531 Z M 64.628906 38.769531 " fill-opacity="1" fill-rule="nonzero"/><path fill="#000000" d="M 60.867188 42.53125 C 60.867188 42.332031 60.902344 42.140625 60.980469 41.957031 C 61.054688 41.769531 61.164062 41.609375 61.304688 41.46875 C 61.449219 41.324219 61.609375 41.21875 61.796875 41.140625 C 61.980469 41.066406 62.171875 41.027344 62.371094 41.027344 C 62.570312 41.027344 62.761719 41.066406 62.949219 41.140625 C 63.132812 41.21875 63.292969 41.324219 63.4375 41.46875 C 63.578125 41.609375 63.6875 41.769531 63.761719 41.957031 C 63.839844 42.140625 63.875 42.332031 63.875 42.53125 C 63.875 42.730469 63.839844 42.921875 63.761719 43.109375 C 63.6875 43.292969 63.578125 43.457031 63.4375 43.597656 C 63.292969 43.738281 63.132812 43.847656 62.949219 43.921875 C 62.761719 44 62.570312 44.039062 62.371094 44.039062 C 62.171875 44.039062 61.980469 44 61.796875 43.921875 C 61.609375 43.847656 61.449219 43.738281 61.304688 43.597656 C 61.164062 43.457031 61.054688 43.292969 60.980469 43.109375 C 60.902344 42.921875 60.867188 42.730469 60.867188 42.53125 Z M 60.867188 42.53125 " fill-opacity="1" fill-rule="nonzero"/><path fill="#000000" d="M 57.101562 38.769531 C 57.101562 38.566406 57.140625 38.375 57.214844 38.191406 C 57.292969 38.007812 57.402344 37.84375 57.542969 37.703125 C 57.683594 37.5625 57.847656 37.453125 58.03125 37.375 C 58.214844 37.300781 58.40625 37.261719 58.605469 37.261719 C 58.808594 37.261719 59 37.300781 59.183594 37.375 C 59.367188 37.453125 59.53125 37.5625 59.671875 37.703125 C 59.8125 37.84375 59.921875 38.007812 60 38.191406 C 60.074219 38.375 60.113281 38.566406 60.113281 38.769531 C 60.113281 38.96875 60.074219 39.160156 60 39.34375 C 59.921875 39.527344 59.8125 39.691406 59.671875 39.832031 C 59.53125 39.972656 59.367188 40.082031 59.183594 40.160156 C 59 40.234375 58.808594 40.273438 58.605469 40.273438 C 58.40625 40.273438 58.214844 40.234375 58.03125 40.160156 C 57.847656 40.082031 57.683594 39.972656 57.542969 39.832031 C 57.402344 39.691406 57.292969 39.527344 57.214844 39.34375 C 57.140625 39.160156 57.101562 38.96875 57.101562 38.769531 Z M 57.101562 38.769531 " fill-opacity="1" fill-rule="nonzero"/><path fill="#000000" d="M 60.867188 35.003906 C 60.867188 34.804688 60.902344 34.613281 60.980469 34.425781 C 61.054688 34.242188 61.164062 34.082031 61.304688 33.9375 C 61.449219 33.796875 61.609375 33.6875 61.796875 33.613281 C 61.980469 33.535156 62.171875 33.5 62.371094 33.5 C 62.570312 33.5 62.761719 33.535156 62.949219 33.613281 C 63.132812 33.6875 63.292969 33.796875 63.4375 33.9375 C 63.578125 34.082031 63.6875 34.242188 63.761719 34.425781 C 63.839844 34.613281 63.875 34.804688 63.875 35.003906 C 63.875 35.203125 63.839844 35.394531 63.761719 35.578125 C 63.6875 35.765625 63.578125 35.925781 63.4375 36.070312 C 63.292969 36.210938 63.132812 36.320312 62.949219 36.394531 C 62.761719 36.472656 62.570312 36.507812 62.371094 36.507812 C 62.171875 36.507812 61.980469 36.472656 61.796875 36.394531 C 61.609375 36.320312 61.449219 36.210938 61.304688 36.070312 C 61.164062 35.925781 61.054688 35.765625 60.980469 35.578125 C 60.902344 35.394531 60.867188 35.203125 60.867188 35.003906 Z M 60.867188 35.003906 " fill-opacity="1" fill-rule="nonzero"/><path fill="#000000" d="M 53.335938 38.769531 C 53.335938 38.566406 53.375 38.375 53.453125 38.191406 C 53.527344 38.007812 53.636719 37.84375 53.777344 37.703125 C 53.917969 37.5625 54.082031 37.453125 54.265625 37.375 C 54.453125 37.300781 54.644531 37.261719 54.84375 37.261719 C 55.042969 37.261719 55.234375 37.300781 55.417969 37.375 C 55.605469 37.453125 55.765625 37.5625 55.90625 37.703125 C 56.050781 37.84375 56.15625 38.007812 56.234375 38.191406 C 56.308594 38.375 56.347656 38.566406 56.347656 38.769531 C 56.347656 38.96875 56.308594 39.160156 56.234375 39.34375 C 56.15625 39.527344 56.050781 39.691406 55.90625 39.832031 C 55.765625 39.972656 55.605469 40.082031 55.417969 40.160156 C 55.234375 40.234375 55.042969 40.273438 54.84375 40.273438 C 54.644531 40.273438 54.453125 40.234375 54.265625 40.160156 C 54.082031 40.082031 53.917969 39.972656 53.777344 39.832031 C 53.636719 39.691406 53.527344 39.527344 53.453125 39.34375 C 53.375 39.160156 53.335938 38.96875 53.335938 38.769531 Z M 53.335938 38.769531 " fill-opacity="1" fill-rule="nonzero"/><path fill="#000000" d="M 49.574219 42.53125 C 49.574219 42.332031 49.613281 42.140625 49.6875 41.957031 C 49.765625 41.769531 49.875 41.609375 50.015625 41.46875 C 50.15625 41.324219 50.320312 41.21875 50.503906 41.140625 C 50.6875 41.066406 50.878906 41.027344 51.078125 41.027344 C 51.277344 41.027344 51.472656 41.066406 51.65625 41.140625 C 51.839844 41.21875 52.003906 41.324219 52.144531 41.46875 C 52.285156 41.609375 52.394531 41.769531 52.46875 41.957031 C 52.546875 42.140625 52.585938 42.332031 52.585938 42.53125 C 52.585938 42.730469 52.546875 42.921875 52.46875 43.109375 C 52.394531 43.292969 52.285156 43.457031 52.144531 43.597656 C 52.003906 43.738281 51.839844 43.847656 51.65625 43.921875 C 51.472656 44 51.277344 44.039062 51.078125 44.039062 C 50.878906 44.039062 50.6875 44 50.503906 43.921875 C 50.320312 43.847656 50.15625 43.738281 50.015625 43.597656 C 49.875 43.457031 49.765625 43.292969 49.6875 43.109375 C 49.613281 42.921875 49.574219 42.730469 49.574219 42.53125 Z M 49.574219 42.53125 " fill-opacity="1" fill-rule="nonzero"/><path fill="#000000" d="M 45.808594 38.769531 C 45.808594 38.566406 45.847656 38.375 45.925781 38.191406 C 46 38.007812 46.109375 37.84375 46.25 37.703125 C 46.390625 37.5625 46.554688 37.453125 46.738281 37.375 C 46.921875 37.300781 47.117188 37.261719 47.316406 37.261719 C 47.515625 37.261719 47.707031 37.300781 47.890625 37.375 C 48.074219 37.453125 48.238281 37.5625 48.378906 37.703125 C 48.519531 37.84375 48.628906 38.007812 48.707031 38.191406 C 48.78125 38.375 48.820312 38.566406 48.820312 38.769531 C 48.820312 38.96875 48.78125 39.160156 48.707031 39.34375 C 48.628906 39.527344 48.519531 39.691406 48.378906 39.832031 C 48.238281 39.972656 48.074219 40.082031 47.890625 40.160156 C 47.707031 40.234375 47.515625 40.273438 47.316406 40.273438 C 47.117188 40.273438 46.921875 40.234375 46.738281 40.160156 C 46.554688 40.082031 46.390625 39.972656 46.25 39.832031 C 46.109375 39.691406 46 39.527344 45.925781 39.34375 C 45.847656 39.160156 45.808594 38.96875 45.808594 38.769531 Z M 45.808594 38.769531 " fill-opacity="1" fill-rule="nonzero"/><path fill="#000000" d="M 49.574219 35.003906 C 49.574219 34.804688 49.613281 34.613281 49.6875 34.425781 C 49.765625 34.242188 49.875 34.082031 50.015625 33.9375 C 50.15625 33.796875 50.320312 33.6875 50.503906 33.613281 C 50.6875 33.535156 50.878906 33.5 51.078125 33.5 C 51.277344 33.5 51.472656 33.535156 51.65625 33.613281 C 51.839844 33.6875 52.003906 33.796875 52.144531 33.9375 C 52.285156 34.082031 52.394531 34.242188 52.46875 34.425781 C 52.546875 34.613281 52.585938 34.804688 52.585938 35.003906 C 52.585938 35.203125 52.546875 35.394531 52.46875 35.578125 C 52.394531 35.765625 52.285156 35.925781 52.144531 36.070312 C 52.003906 36.210938 51.839844 36.320312 51.65625 36.394531 C 51.472656 36.472656 51.277344 36.507812 51.078125 36.507812 C 50.878906 36.507812 50.6875 36.472656 50.503906 36.394531 C 50.320312 36.320312 50.15625 36.210938 50.015625 36.070312 C 49.875 35.925781 49.765625 35.765625 49.6875 35.578125 C 49.613281 35.394531 49.574219 35.203125 49.574219 35.003906 Z M 49.574219 35.003906 " fill-opacity="1" fill-rule="nonzero"/><g fill="#008080" fill-opacity="1"><g transform="translate(18.048554, 43.648523)"><g><path d="M 8.859375 -2.765625 L 8.859375 -0.296875 C 8.429688 -0.160156 7.945312 -0.0546875 7.40625 0.015625 C 6.863281 0.0976562 6.320312 0.140625 5.78125 0.140625 C 4.6875 0.140625 3.75 -0.0859375 2.96875 -0.546875 C 2.195312 -1.003906 1.613281 -1.617188 1.21875 -2.390625 C 0.820312 -3.171875 0.625 -4.035156 0.625 -4.984375 C 0.625 -5.929688 0.820312 -6.789062 1.21875 -7.5625 C 1.613281 -8.332031 2.195312 -8.945312 2.96875 -9.40625 C 3.75 -9.863281 4.6875 -10.09375 5.78125 -10.09375 C 6.320312 -10.09375 6.863281 -10.054688 7.40625 -9.984375 C 7.945312 -9.910156 8.429688 -9.800781 8.859375 -9.65625 L 8.859375 -7.203125 C 8.523438 -7.390625 8.082031 -7.53125 7.53125 -7.625 C 6.988281 -7.726562 6.445312 -7.78125 5.90625 -7.78125 C 5.175781 -7.78125 4.601562 -7.65625 4.1875 -7.40625 C 3.769531 -7.164062 3.46875 -6.832031 3.28125 -6.40625 C 3.101562 -5.988281 3.015625 -5.519531 3.015625 -5 C 3.015625 -4.476562 3.101562 -4.003906 3.28125 -3.578125 C 3.46875 -3.148438 3.769531 -2.8125 4.1875 -2.5625 C 4.601562 -2.3125 5.175781 -2.1875 5.90625 -2.1875 C 6.445312 -2.1875 6.988281 -2.238281 7.53125 -2.34375 C 8.082031 -2.445312 8.523438 -2.585938 8.859375 -2.765625 Z M 8.859375 -2.765625 "/></g></g></g><g fill="#008080" fill-opacity="1"><g transform="translate(27.784717, 43.648523)"><g><path d="M 3.59375 -5 L 3.59375 0 L 1.203125 0 L 1.203125 -4.984375 C 1.203125 -5.929688 1.398438 -6.789062 1.796875 -7.5625 C 2.203125 -8.332031 2.789062 -8.945312 3.5625 -9.40625 C 4.332031 -9.863281 5.265625 -10.09375 6.359375 -10.09375 C 6.503906 -10.09375 6.648438 -10.082031 6.796875 -10.0625 C 6.941406 -10.050781 7.085938 -10.03125 7.234375 -10 L 7.234375 -7.6875 C 7.109375 -7.707031 6.984375 -7.726562 6.859375 -7.75 C 6.742188 -7.769531 6.617188 -7.78125 6.484375 -7.78125 C 5.765625 -7.78125 5.191406 -7.65625 4.765625 -7.40625 C 4.347656 -7.164062 4.046875 -6.832031 3.859375 -6.40625 C 3.679688 -5.988281 3.59375 -5.519531 3.59375 -5 Z M 3.59375 -5 "/></g></g></g><g fill="#008080" fill-opacity="1"><g transform="translate(35.121775, 43.648523)"><g><path d="M 3.234375 -6.28125 C 3.597656 -6.144531 4.003906 -6.03125 4.453125 -5.9375 C 4.910156 -5.851562 5.335938 -5.8125 5.734375 -5.8125 C 6.296875 -5.8125 6.738281 -5.894531 7.0625 -6.0625 C 7.382812 -6.226562 7.546875 -6.472656 7.546875 -6.796875 C 7.546875 -7.117188 7.382812 -7.363281 7.0625 -7.53125 C 6.75 -7.695312 6.328125 -7.78125 5.796875 -7.78125 C 5.109375 -7.78125 4.554688 -7.644531 4.140625 -7.375 C 3.722656 -7.113281 3.421875 -6.75 3.234375 -6.28125 Z M 9.265625 -2.578125 L 9.265625 -0.3125 C 8.765625 -0.1875 8.207031 -0.0820312 7.59375 0 C 6.988281 0.0820312 6.453125 0.125 5.984375 0.125 C 4.796875 0.125 3.800781 -0.101562 3 -0.5625 C 2.195312 -1.03125 1.597656 -1.648438 1.203125 -2.421875 C 0.816406 -3.191406 0.625 -4.035156 0.625 -4.953125 C 0.625 -5.921875 0.820312 -6.789062 1.21875 -7.5625 C 1.613281 -8.332031 2.191406 -8.945312 2.953125 -9.40625 C 3.710938 -9.863281 4.632812 -10.09375 5.71875 -10.09375 C 6.539062 -10.09375 7.269531 -9.953125 7.90625 -9.671875 C 8.550781 -9.398438 9.050781 -9.015625 9.40625 -8.515625 C 9.769531 -8.023438 9.953125 -7.453125 9.953125 -6.796875 C 9.953125 -6.140625 9.769531 -5.566406 9.40625 -5.078125 C 9.050781 -4.585938 8.554688 -4.203125 7.921875 -3.921875 C 7.296875 -3.640625 6.5625 -3.5 5.71875 -3.5 C 4.800781 -3.5 3.925781 -3.695312 3.09375 -4.09375 C 3.21875 -3.519531 3.507812 -3.0625 3.96875 -2.71875 C 4.425781 -2.375 5.148438 -2.203125 6.140625 -2.203125 C 6.429688 -2.203125 6.769531 -2.21875 7.15625 -2.25 C 7.539062 -2.28125 7.921875 -2.320312 8.296875 -2.375 C 8.679688 -2.425781 9.003906 -2.492188 9.265625 -2.578125 Z M 9.265625 -2.578125 "/></g></g></g><g fill="#008080" fill-opacity="1"><g transform="translate(68.332051, 43.648523)"><g><path d="M 0.734375 -0.3125 L 0.734375 -2.578125 C 1.046875 -2.492188 1.429688 -2.421875 1.890625 -2.359375 C 2.359375 -2.304688 2.84375 -2.265625 3.34375 -2.234375 C 3.84375 -2.203125 4.296875 -2.1875 4.703125 -2.1875 C 5.484375 -2.1875 6.046875 -2.25 6.390625 -2.375 C 6.742188 -2.5 6.921875 -2.703125 6.921875 -2.984375 C 6.921875 -3.117188 6.859375 -3.226562 6.734375 -3.3125 C 6.617188 -3.40625 6.378906 -3.5 6.015625 -3.59375 C 5.660156 -3.6875 5.113281 -3.800781 4.375 -3.9375 C 4.125 -3.988281 3.800781 -4.054688 3.40625 -4.140625 C 3.007812 -4.234375 2.613281 -4.378906 2.21875 -4.578125 C 1.820312 -4.773438 1.488281 -5.0625 1.21875 -5.4375 C 0.945312 -5.820312 0.8125 -6.328125 0.8125 -6.953125 C 0.8125 -7.679688 0.992188 -8.273438 1.359375 -8.734375 C 1.734375 -9.191406 2.242188 -9.53125 2.890625 -9.75 C 3.535156 -9.976562 4.265625 -10.09375 5.078125 -10.09375 C 5.410156 -10.09375 5.789062 -10.078125 6.21875 -10.046875 C 6.644531 -10.015625 7.078125 -9.960938 7.515625 -9.890625 C 7.960938 -9.828125 8.359375 -9.75 8.703125 -9.65625 L 8.703125 -7.40625 C 8.441406 -7.476562 8.09375 -7.546875 7.65625 -7.609375 C 7.21875 -7.671875 6.757812 -7.71875 6.28125 -7.75 C 5.8125 -7.78125 5.382812 -7.796875 5 -7.796875 C 4.300781 -7.796875 3.8125 -7.726562 3.53125 -7.59375 C 3.257812 -7.46875 3.125 -7.285156 3.125 -7.046875 C 3.125 -6.785156 3.285156 -6.59375 3.609375 -6.46875 C 3.929688 -6.351562 4.519531 -6.210938 5.375 -6.046875 C 6.03125 -5.921875 6.648438 -5.765625 7.234375 -5.578125 C 7.828125 -5.398438 8.304688 -5.125 8.671875 -4.75 C 9.035156 -4.382812 9.21875 -3.832031 9.21875 -3.09375 C 9.21875 -2.351562 9.007812 -1.742188 8.59375 -1.265625 C 8.1875 -0.785156 7.628906 -0.429688 6.921875 -0.203125 C 6.222656 0.015625 5.441406 0.125 4.578125 0.125 C 4.234375 0.125 3.832031 0.101562 3.375 0.0625 C 2.914062 0.03125 2.453125 -0.015625 1.984375 -0.078125 C 1.523438 -0.148438 1.109375 -0.226562 0.734375 -0.3125 Z M 0.734375 -0.3125 "/></g></g></g><g fill="#008080" fill-opacity="1"><g transform="translate(78.168167, 43.648523)"><g><path d="M 3.59375 -5 C 3.59375 -4.03125 3.832031 -3.3125 4.3125 -2.84375 C 4.800781 -2.375 5.453125 -2.140625 6.265625 -2.140625 C 6.929688 -2.140625 7.460938 -2.269531 7.859375 -2.53125 C 8.253906 -2.789062 8.539062 -3.132812 8.71875 -3.5625 C 8.90625 -4 9 -4.476562 9 -5 C 9 -5.53125 8.90625 -6.007812 8.71875 -6.4375 C 8.539062 -6.863281 8.253906 -7.207031 7.859375 -7.46875 C 7.460938 -7.726562 6.929688 -7.859375 6.265625 -7.859375 C 5.453125 -7.859375 4.800781 -7.628906 4.3125 -7.171875 C 3.832031 -6.710938 3.59375 -5.988281 3.59375 -5 Z M 3.59375 -1.140625 L 3.59375 4 L 1.203125 4 L 1.203125 -5 C 1.203125 -5.945312 1.394531 -6.800781 1.78125 -7.5625 C 2.175781 -8.332031 2.75 -8.945312 3.5 -9.40625 C 4.257812 -9.863281 5.1875 -10.09375 6.28125 -10.09375 C 7.414062 -10.09375 8.359375 -9.851562 9.109375 -9.375 C 9.859375 -8.894531 10.425781 -8.269531 10.8125 -7.5 C 11.207031 -6.738281 11.40625 -5.910156 11.40625 -5.015625 C 11.40625 -4.066406 11.195312 -3.203125 10.78125 -2.421875 C 10.363281 -1.648438 9.785156 -1.035156 9.046875 -0.578125 C 8.316406 -0.128906 7.484375 0.09375 6.546875 0.09375 C 5.890625 0.09375 5.320312 -0.015625 4.84375 -0.234375 C 4.363281 -0.460938 3.945312 -0.765625 3.59375 -1.140625 Z M 3.59375 -1.140625 "/></g></g></g><g fill="#008080" fill-opacity="1"><g transform="translate(90.16344, 43.648523)"><g><path d="M 3.59375 -5 L 3.59375 0 L 1.203125 0 L 1.203125 -14 L 3.59375 -14 L 3.59375 -8.859375 C 3.925781 -9.242188 4.332031 -9.546875 4.8125 -9.765625 C 5.300781 -9.984375 5.847656 -10.09375 6.453125 -10.09375 C 7.378906 -10.09375 8.179688 -9.863281 8.859375 -9.40625 C 9.535156 -8.957031 10.0625 -8.347656 10.4375 -7.578125 C 10.8125 -6.804688 11 -5.945312 11 -5 L 11 0 L 8.59375 0 L 8.59375 -5 C 8.59375 -5.851562 8.40625 -6.539062 8.03125 -7.0625 C 7.664062 -7.59375 7.054688 -7.859375 6.203125 -7.859375 C 5.347656 -7.859375 4.695312 -7.59375 4.25 -7.0625 C 3.8125 -6.53125 3.59375 -5.84375 3.59375 -5 Z M 3.59375 -5 "/></g></g></g><g fill="#008080" fill-opacity="1"><g transform="translate(102.198686, 43.648523)"><g><path d="M 3.234375 -6.28125 C 3.597656 -6.144531 4.003906 -6.03125 4.453125 -5.9375 C 4.910156 -5.851562 5.335938 -5.8125 5.734375 -5.8125 C 6.296875 -5.8125 6.738281 -5.894531 7.0625 -6.0625 C 7.382812 -6.226562 7.546875 -6.472656 7.546875 -6.796875 C 7.546875 -7.117188 7.382812 -7.363281 7.0625 -7.53125 C 6.75 -7.695312 6.328125 -7.78125 5.796875 -7.78125 C 5.109375 -7.78125 4.554688 -7.644531 4.140625 -7.375 C 3.722656 -7.113281 3.421875 -6.75 3.234375 -6.28125 Z M 9.265625 -2.578125 L 9.265625 -0.3125 C 8.765625 -0.1875 8.207031 -0.0820312 7.59375 0 C 6.988281 0.0820312 6.453125 0.125 5.984375 0.125 C 4.796875 0.125 3.800781 -0.101562 3 -0.5625 C 2.195312 -1.03125 1.597656 -1.648438 1.203125 -2.421875 C 0.816406 -3.191406 0.625 -4.035156 0.625 -4.953125 C 0.625 -5.921875 0.820312 -6.789062 1.21875 -7.5625 C 1.613281 -8.332031 2.191406 -8.945312 2.953125 -9.40625 C 3.710938 -9.863281 4.632812 -10.09375 5.71875 -10.09375 C 6.539062 -10.09375 7.269531 -9.953125 7.90625 -9.671875 C 8.550781 -9.398438 9.050781 -9.015625 9.40625 -8.515625 C 9.769531 -8.023438 9.953125 -7.453125 9.953125 -6.796875 C 9.953125 -6.140625 9.769531 -5.566406 9.40625 -5.078125 C 9.050781 -4.585938 8.554688 -4.203125 7.921875 -3.921875 C 7.296875 -3.640625 6.5625 -3.5 5.71875 -3.5 C 4.800781 -3.5 3.925781 -3.695312 3.09375 -4.09375 C 3.21875 -3.519531 3.507812 -3.0625 3.96875 -2.71875 C 4.425781 -2.375 5.148438 -2.203125 6.140625 -2.203125 C 6.429688 -2.203125 6.769531 -2.21875 7.15625 -2.25 C 7.539062 -2.28125 7.921875 -2.320312 8.296875 -2.375 C 8.679688 -2.425781 9.003906 -2.492188 9.265625 -2.578125 Z M 9.265625 -2.578125 "/></g></g></g><g fill="#008080" fill-opacity="1"><g transform="translate(112.834493, 43.648523)"><g><path d="M 3.59375 -5 L 3.59375 0 L 1.203125 0 L 1.203125 -4.984375 C 1.203125 -5.929688 1.398438 -6.789062 1.796875 -7.5625 C 2.203125 -8.332031 2.789062 -8.945312 3.5625 -9.40625 C 4.332031 -9.863281 5.265625 -10.09375 6.359375 -10.09375 C 6.503906 -10.09375 6.648438 -10.082031 6.796875 -10.0625 C 6.941406 -10.050781 7.085938 -10.03125 7.234375 -10 L 7.234375 -7.6875 C 7.109375 -7.707031 6.984375 -7.726562 6.859375 -7.75 C 6.742188 -7.769531 6.617188 -7.78125 6.484375 -7.78125 C 5.765625 -7.78125 5.191406 -7.65625 4.765625 -7.40625 C 4.347656 -7.164062 4.046875 -6.832031 3.859375 -6.40625 C 3.679688 -5.988281 3.59375 -5.519531 3.59375 -5 Z M 3.59375 -5 "/></g></g></g><g fill="#008080" fill-opacity="1"><g transform="translate(120.171551, 43.648523)"><g><path d="M 3.234375 -6.28125 C 3.597656 -6.144531 4.003906 -6.03125 4.453125 -5.9375 C 4.910156 -5.851562 5.335938 -5.8125 5.734375 -5.8125 C 6.296875 -5.8125 6.738281 -5.894531 7.0625 -6.0625 C 7.382812 -6.226562 7.546875 -6.472656 7.546875 -6.796875 C 7.546875 -7.117188 7.382812 -7.363281 7.0625 -7.53125 C 6.75 -7.695312 6.328125 -7.78125 5.796875 -7.78125 C 5.109375 -7.78125 4.554688 -7.644531 4.140625 -7.375 C 3.722656 -7.113281 3.421875 -6.75 3.234375 -6.28125 Z M 9.265625 -2.578125 L 9.265625 -0.3125 C 8.765625 -0.1875 8.207031 -0.0820312 7.59375 0 C 6.988281 0.0820312 6.453125 0.125 5.984375 0.125 C 4.796875 0.125 3.800781 -0.101562 3 -0.5625 C 2.195312 -1.03125 1.597656 -1.648438 1.203125 -2.421875 C 0.816406 -3.191406 0.625 -4.035156 0.625 -4.953125 C 0.625 -5.921875 0.820312 -6.789062 1.21875 -7.5625 C 1.613281 -8.332031 2.191406 -8.945312 2.953125 -9.40625 C 3.710938 -9.863281 4.632812 -10.09375 5.71875 -10.09375 C 6.539062 -10.09375 7.269531 -9.953125 7.90625 -9.671875 C 8.550781 -9.398438 9.050781 -9.015625 9.40625 -8.515625 C 9.769531 -8.023438 9.953125 -7.453125 9.953125 -6.796875 C 9.953125 -6.140625 9.769531 -5.566406 9.40625 -5.078125 C 9.050781 -4.585938 8.554688 -4.203125 7.921875 -3.921875 C 7.296875 -3.640625 6.5625 -3.5 5.71875 -3.5 C 4.800781 -3.5 3.925781 -3.695312 3.09375 -4.09375 C 3.21875 -3.519531 3.507812 -3.0625 3.96875 -2.71875 C 4.425781 -2.375 5.148438 -2.203125 6.140625 -2.203125 C 6.429688 -2.203125 6.769531 -2.21875 7.15625 -2.25 C 7.539062 -2.28125 7.921875 -2.320312 8.296875 -2.375 C 8.679688 -2.425781 9.003906 -2.492188 9.265625 -2.578125 Z M 9.265625 -2.578125 "/></g></g></g><g fill="#000000" fill-opacity="1"><g transform="translate(100.710955, 52.14852)"><g><path d="M 8.40625 -2.703125 L 8.40625 0 L 7.203125 0 L 7.203125 -2.703125 C 7.203125 -3.054688 7.113281 -3.347656 6.9375 -3.578125 C 6.769531 -3.816406 6.507812 -3.9375 6.15625 -3.9375 C 5.800781 -3.9375 5.535156 -3.816406 5.359375 -3.578125 C 5.179688 -3.347656 5.09375 -3.054688 5.09375 -2.703125 L 5.09375 0 L 3.90625 0 L 3.90625 -2.703125 C 3.90625 -3.054688 3.816406 -3.347656 3.640625 -3.578125 C 3.460938 -3.816406 3.195312 -3.9375 2.84375 -3.9375 C 2.488281 -3.9375 2.222656 -3.816406 2.046875 -3.578125 C 1.878906 -3.347656 1.796875 -3.054688 1.796875 -2.703125 L 1.796875 0 L 0.59375 0 L 0.59375 -2.703125 C 0.59375 -3.128906 0.679688 -3.519531 0.859375 -3.875 C 1.035156 -4.238281 1.289062 -4.523438 1.625 -4.734375 C 1.96875 -4.941406 2.375 -5.046875 2.84375 -5.046875 C 3.238281 -5.046875 3.570312 -4.953125 3.84375 -4.765625 C 4.125 -4.585938 4.34375 -4.347656 4.5 -4.046875 C 4.65625 -4.347656 4.867188 -4.585938 5.140625 -4.765625 C 5.421875 -4.953125 5.757812 -5.046875 6.15625 -5.046875 C 6.632812 -5.046875 7.039062 -4.941406 7.375 -4.734375 C 7.707031 -4.523438 7.960938 -4.238281 8.140625 -3.875 C 8.316406 -3.519531 8.40625 -3.128906 8.40625 -2.703125 Z M 8.40625 -2.703125 "/></g></g></g><g fill="#000000" fill-opacity="1"><g transform="translate(109.627435, 52.14852)"><g><path d="M 1.625 -3.140625 C 1.800781 -3.078125 2 -3.019531 2.21875 -2.96875 C 2.445312 -2.925781 2.664062 -2.90625 2.875 -2.90625 C 3.15625 -2.90625 3.375 -2.945312 3.53125 -3.03125 C 3.6875 -3.113281 3.765625 -3.238281 3.765625 -3.40625 C 3.765625 -3.5625 3.6875 -3.679688 3.53125 -3.765625 C 3.375 -3.847656 3.164062 -3.890625 2.90625 -3.890625 C 2.550781 -3.890625 2.269531 -3.820312 2.0625 -3.6875 C 1.863281 -3.550781 1.71875 -3.367188 1.625 -3.140625 Z M 4.625 -1.296875 L 4.625 -0.15625 C 4.382812 -0.09375 4.109375 -0.0390625 3.796875 0 C 3.492188 0.0390625 3.222656 0.0625 2.984375 0.0625 C 2.390625 0.0625 1.894531 -0.0507812 1.5 -0.28125 C 1.101562 -0.507812 0.804688 -0.816406 0.609375 -1.203125 C 0.410156 -1.597656 0.3125 -2.023438 0.3125 -2.484375 C 0.3125 -2.960938 0.410156 -3.394531 0.609375 -3.78125 C 0.804688 -4.164062 1.09375 -4.472656 1.46875 -4.703125 C 1.851562 -4.929688 2.316406 -5.046875 2.859375 -5.046875 C 3.273438 -5.046875 3.640625 -4.972656 3.953125 -4.828125 C 4.273438 -4.691406 4.523438 -4.5 4.703125 -4.25 C 4.890625 -4.007812 4.984375 -3.726562 4.984375 -3.40625 C 4.984375 -3.070312 4.890625 -2.78125 4.703125 -2.53125 C 4.523438 -2.289062 4.273438 -2.097656 3.953125 -1.953125 C 3.640625 -1.816406 3.273438 -1.75 2.859375 -1.75 C 2.398438 -1.75 1.960938 -1.847656 1.546875 -2.046875 C 1.609375 -1.765625 1.753906 -1.535156 1.984375 -1.359375 C 2.210938 -1.179688 2.570312 -1.09375 3.0625 -1.09375 C 3.21875 -1.09375 3.390625 -1.101562 3.578125 -1.125 C 3.773438 -1.144531 3.96875 -1.164062 4.15625 -1.1875 C 4.34375 -1.21875 4.5 -1.253906 4.625 -1.296875 Z M 4.625 -1.296875 "/></g></g></g><g fill="#000000" fill-opacity="1"><g transform="translate(114.895345, 52.14852)"><g><path d="M 4.203125 -2.5 C 4.203125 -2.988281 4.082031 -3.347656 3.84375 -3.578125 C 3.613281 -3.816406 3.289062 -3.9375 2.875 -3.9375 C 2.550781 -3.9375 2.285156 -3.867188 2.078125 -3.734375 C 1.878906 -3.609375 1.734375 -3.4375 1.640625 -3.21875 C 1.554688 -3.007812 1.515625 -2.769531 1.515625 -2.5 C 1.515625 -2.238281 1.554688 -2 1.640625 -1.78125 C 1.734375 -1.5625 1.878906 -1.382812 2.078125 -1.25 C 2.285156 -1.125 2.550781 -1.0625 2.875 -1.0625 C 3.289062 -1.0625 3.613281 -1.175781 3.84375 -1.40625 C 4.082031 -1.644531 4.203125 -2.007812 4.203125 -2.5 Z M 4.203125 -7 L 5.40625 -7 L 5.40625 -2.5 C 5.40625 -2.03125 5.304688 -1.601562 5.109375 -1.21875 C 4.910156 -0.832031 4.625 -0.523438 4.25 -0.296875 C 3.875 -0.0664062 3.414062 0.046875 2.875 0.046875 C 2.3125 0.046875 1.835938 -0.0703125 1.453125 -0.3125 C 1.078125 -0.550781 0.789062 -0.863281 0.59375 -1.25 C 0.40625 -1.632812 0.3125 -2.046875 0.3125 -2.484375 C 0.3125 -2.960938 0.414062 -3.394531 0.625 -3.78125 C 0.832031 -4.175781 1.117188 -4.484375 1.484375 -4.703125 C 1.847656 -4.929688 2.265625 -5.046875 2.734375 -5.046875 C 3.066406 -5.046875 3.351562 -4.988281 3.59375 -4.875 C 3.832031 -4.769531 4.035156 -4.625 4.203125 -4.4375 Z M 4.203125 -7 "/></g></g></g><g fill="#000000" fill-opacity="1"><g transform="translate(120.902977, 52.14852)"><g><path d="M 1.796875 -5 L 1.796875 0 L 0.59375 0 L 0.59375 -5 Z M 1.203125 -5.5625 C 0.960938 -5.5625 0.773438 -5.640625 0.640625 -5.796875 C 0.503906 -5.953125 0.4375 -6.132812 0.4375 -6.34375 C 0.4375 -6.550781 0.503906 -6.726562 0.640625 -6.875 C 0.773438 -7.019531 0.960938 -7.09375 1.203125 -7.09375 C 1.441406 -7.09375 1.625 -7.019531 1.75 -6.875 C 1.882812 -6.726562 1.953125 -6.550781 1.953125 -6.34375 C 1.953125 -6.125 1.882812 -5.9375 1.75 -5.78125 C 1.625 -5.632812 1.441406 -5.5625 1.203125 -5.5625 Z M 1.203125 -5.5625 "/></g></g></g><g fill="#000000" fill-opacity="1"><g transform="translate(123.302036, 52.14852)"><g><path d="M 4.203125 -2.5 C 4.191406 -2.9375 4.082031 -3.285156 3.875 -3.546875 C 3.664062 -3.804688 3.332031 -3.9375 2.875 -3.9375 C 2.394531 -3.9375 2.046875 -3.796875 1.828125 -3.515625 C 1.617188 -3.234375 1.515625 -2.894531 1.515625 -2.5 C 1.515625 -2.238281 1.554688 -2 1.640625 -1.78125 C 1.734375 -1.5625 1.878906 -1.382812 2.078125 -1.25 C 2.285156 -1.125 2.550781 -1.0625 2.875 -1.0625 C 3.289062 -1.0625 3.613281 -1.175781 3.84375 -1.40625 C 4.082031 -1.644531 4.203125 -2.007812 4.203125 -2.5 Z M 5.8125 0 L 4.609375 0 C 4.554688 -0.132812 4.507812 -0.265625 4.46875 -0.390625 C 4.425781 -0.515625 4.390625 -0.640625 4.359375 -0.765625 C 4.191406 -0.523438 3.972656 -0.328125 3.703125 -0.171875 C 3.429688 -0.0234375 3.109375 0.046875 2.734375 0.046875 C 2.265625 0.046875 1.847656 -0.0625 1.484375 -0.28125 C 1.117188 -0.507812 0.832031 -0.816406 0.625 -1.203125 C 0.414062 -1.597656 0.3125 -2.035156 0.3125 -2.515625 C 0.3125 -2.972656 0.410156 -3.394531 0.609375 -3.78125 C 0.816406 -4.164062 1.109375 -4.472656 1.484375 -4.703125 C 1.867188 -4.929688 2.332031 -5.046875 2.875 -5.046875 C 3.632812 -5.046875 4.238281 -4.816406 4.6875 -4.359375 C 5.144531 -3.898438 5.382812 -3.28125 5.40625 -2.5 C 5.414062 -2.332031 5.421875 -2.113281 5.421875 -1.84375 C 5.429688 -1.582031 5.460938 -1.289062 5.515625 -0.96875 C 5.566406 -0.644531 5.664062 -0.320312 5.8125 0 Z M 5.8125 0 "/></g></g></g></svg>